<svg width="10" height="16" viewBox="0 0 10 16" fill="none" xmlns="http://www.w3.org/2000/svg">
<path fill-rule="evenodd" clip-rule="evenodd" d="M7.74578 7.29289C8.12972 7.68342 8.12972 8.31658 7.74578 8.70711L2.83012 13.7071C2.64575 13.8946 2.39569 14 2.13494 14H0.983132C0.440163 14 -1.89239e-07 14.4477 -1.89239e-07 15C-1.89239e-07 15.5523 0.440163 16 0.983132 16H2.13494C2.91717 16 3.66736 15.6839 4.22048 15.1213L9.13614 10.1213C10.288 8.94975 10.288 7.05025 9.13614 5.87868L4.22048 0.878679C3.66736 0.31607 2.91717 0 2.13494 0H0.983132C0.440163 0 -1.89239e-07 0.447715 -1.89239e-07 1C-1.89239e-07 1.55229 0.440163 2 0.983132 2H2.13494C2.39569 2 2.64575 2.10536 2.83012 2.29289L7.74578 7.29289Z" fill="white"/>
</svg>
