<svg width="94" height="94" viewBox="0 0 94 94" fill="none" xmlns="http://www.w3.org/2000/svg">
<path d="M60.6277 35.6861C54.0034 35.3145 48.3062 11.9128 28.1217 15.9285" stroke="url(#paint0_linear_415_342)" stroke-width="1.5" stroke-miterlimit="1.5" stroke-linecap="round" stroke-linejoin="round"/>
<path d="M64.1444 48.783C57.9414 43.1556 60.5351 38.6871 61.1198 31.9909C61.691 25.4446 60.5525 17.3832 55.1828 11.8821C46.7398 3.23267 34.3817 6.09294 28.1211 15.93" stroke="url(#paint1_linear_415_342)" stroke-width="1.5" stroke-miterlimit="1.5" stroke-linecap="round" stroke-linejoin="round"/>
<path d="M28.1217 15.9285C38.0175 10.5362 46.9391 15.1657 52.2176 21.5612C57.336 27.7632 58.7398 34.3027 60.6277 35.6861" stroke="url(#paint2_linear_415_342)" stroke-width="1.5" stroke-miterlimit="1.5" stroke-linecap="round" stroke-linejoin="round"/>
<path d="M28.1217 15.9286C35.6101 8.26512 45.8928 9.47343 52.0361 15.2743C59.6443 22.4584 59.7709 32.2281 60.6277 35.6861" stroke="url(#paint3_linear_415_342)" stroke-width="1.5" stroke-miterlimit="1.5" stroke-linecap="round" stroke-linejoin="round"/>
<path d="M48.8132 28.9358C43.8663 33.3571 23.2903 20.8382 11.8573 37.9504" stroke="url(#paint4_linear_415_342)" stroke-width="1.5" stroke-miterlimit="1.5" stroke-linecap="round" stroke-linejoin="round"/>
<path d="M60.5605 35.7104C52.1951 36.1174 50.8695 31.1237 46.5479 25.9753C42.3229 20.9425 35.8176 16.0472 28.1308 15.9543C16.0446 15.8083 9.32867 26.5694 11.8576 37.9521" stroke="url(#paint5_linear_415_342)" stroke-width="1.5" stroke-miterlimit="1.5" stroke-linecap="round" stroke-linejoin="round"/>
<path d="M11.8572 37.9504C15.0417 27.14 24.6237 24.105 32.8785 24.8948C40.8833 25.6611 46.5 29.2925 48.8132 28.9358" stroke="url(#paint6_linear_415_342)" stroke-width="1.5" stroke-miterlimit="1.5" stroke-linecap="round" stroke-linejoin="round"/>
<path d="M11.8572 37.9504C11.7335 27.2363 19.8588 20.8198 28.3047 20.5777C38.7645 20.2778 45.7622 27.0965 48.8132 28.9358" stroke="url(#paint7_linear_415_342)" stroke-width="1.5" stroke-miterlimit="1.5" stroke-linecap="round" stroke-linejoin="round"/>
<path d="M35.6861 32.5172C35.3145 39.1415 11.9128 44.8387 15.9286 65.0233" stroke="url(#paint8_linear_415_342)" stroke-width="1.5" stroke-miterlimit="1.5" stroke-linecap="round" stroke-linejoin="round"/>
<path d="M48.783 29.0006C43.1556 35.2037 38.6871 32.6099 31.9909 32.0253C25.4446 31.4541 17.3832 32.5926 11.8821 37.9623C3.23267 46.4052 6.09294 58.7633 15.93 65.0239" stroke="url(#paint9_linear_415_342)" stroke-width="1.5" stroke-miterlimit="1.5" stroke-linecap="round" stroke-linejoin="round"/>
<path d="M15.9286 65.0233C10.5362 55.1275 15.1657 46.2058 21.5612 40.9273C27.7632 35.8089 34.3027 34.4051 35.6861 32.5172" stroke="url(#paint10_linear_415_342)" stroke-width="1.5" stroke-miterlimit="1.5" stroke-linecap="round" stroke-linejoin="round"/>
<path d="M15.9286 65.0233C8.26512 57.5348 9.47343 47.2521 15.2743 41.1088C22.4584 33.5006 32.2281 33.3741 35.6861 32.5172" stroke="url(#paint11_linear_415_342)" stroke-width="1.5" stroke-miterlimit="1.5" stroke-linecap="round" stroke-linejoin="round"/>
<path d="M28.9363 44.332C33.3576 49.2789 20.8386 69.8549 37.9509 81.2879" stroke="url(#paint12_linear_415_342)" stroke-width="1.5" stroke-miterlimit="1.5" stroke-linecap="round" stroke-linejoin="round"/>
<path d="M35.7104 32.5843C36.1174 40.9496 31.1237 42.2753 25.9753 46.5968C20.9424 50.8218 16.0472 57.3271 15.9543 65.0139C15.8083 77.1001 26.5693 83.8161 37.9521 81.2871" stroke="url(#paint13_linear_415_342)" stroke-width="1.5" stroke-miterlimit="1.5" stroke-linecap="round" stroke-linejoin="round"/>
<path d="M37.9509 81.2879C27.1405 78.1035 24.1055 68.5214 24.8953 60.2666C25.6616 52.2619 29.293 46.6451 28.9363 44.332" stroke="url(#paint14_linear_415_342)" stroke-width="1.5" stroke-miterlimit="1.5" stroke-linecap="round" stroke-linejoin="round"/>
<path d="M37.9509 81.2879C27.2368 81.4116 20.8203 73.2863 20.5782 64.8405C20.2783 54.3807 27.097 47.383 28.9363 44.332" stroke="url(#paint15_linear_415_342)" stroke-width="1.5" stroke-miterlimit="1.5" stroke-linecap="round" stroke-linejoin="round"/>
<path d="M32.5171 57.4589C39.1414 57.8306 44.8386 81.2322 65.0231 77.2165" stroke="url(#paint16_linear_415_342)" stroke-width="1.5" stroke-miterlimit="1.5" stroke-linecap="round" stroke-linejoin="round"/>
<path d="M29.0006 44.3622C35.2037 49.9896 32.6099 54.4581 32.0253 61.1543C31.4541 67.7006 32.5926 75.762 37.9623 81.2631C46.4052 89.9125 58.7633 87.0523 65.0239 77.2152" stroke="url(#paint17_linear_415_342)" stroke-width="1.5" stroke-miterlimit="1.5" stroke-linecap="round" stroke-linejoin="round"/>
<path d="M65.0231 77.2165C55.1273 82.6088 46.2057 77.9793 40.9272 71.5838C35.8088 65.3818 34.405 58.8423 32.5171 57.4589" stroke="url(#paint18_linear_415_342)" stroke-width="1.5" stroke-miterlimit="1.5" stroke-linecap="round" stroke-linejoin="round"/>
<path d="M65.0231 77.2165C57.5347 84.8799 47.252 83.6716 41.1087 77.8707C33.5004 70.6866 33.3739 60.9169 32.5171 57.459" stroke="url(#paint19_linear_415_342)" stroke-width="1.5" stroke-miterlimit="1.5" stroke-linecap="round" stroke-linejoin="round"/>
<path d="M44.3318 64.2089C49.2787 59.7876 69.8547 72.3066 81.2878 55.1944" stroke="url(#paint20_linear_415_342)" stroke-width="1.5" stroke-miterlimit="1.5" stroke-linecap="round" stroke-linejoin="round"/>
<path d="M32.5843 57.4346C40.9497 57.0275 42.2753 62.0213 46.5969 67.1696C50.8219 72.2025 57.3272 77.0977 65.014 77.1906C77.1001 77.3366 83.8161 66.5756 81.2872 55.1928" stroke="url(#paint21_linear_415_342)" stroke-width="1.5" stroke-miterlimit="1.5" stroke-linecap="round" stroke-linejoin="round"/>
<path d="M81.2878 55.1944C78.1034 66.0047 68.5213 69.0397 60.2665 68.2499C52.2617 67.4837 46.645 63.8522 44.3319 64.2089" stroke="url(#paint22_linear_415_342)" stroke-width="1.5" stroke-miterlimit="1.5" stroke-linecap="round" stroke-linejoin="round"/>
<path d="M81.2878 55.1943C81.4115 65.9084 73.2862 72.3249 64.8403 72.567C54.3806 72.8669 47.3829 66.0482 44.3318 64.2089" stroke="url(#paint23_linear_415_342)" stroke-width="1.5" stroke-miterlimit="1.5" stroke-linecap="round" stroke-linejoin="round"/>
<path d="M57.4588 60.6277C57.8304 54.0034 81.2321 48.3062 77.2164 28.1217" stroke="url(#paint24_linear_415_342)" stroke-width="1.5" stroke-miterlimit="1.5" stroke-linecap="round" stroke-linejoin="round"/>
<path d="M44.3621 64.1445C49.9895 57.9415 54.458 60.5352 61.1542 61.1199C67.7005 61.6911 75.7619 60.5526 81.263 55.1829C89.9124 46.7399 87.0521 34.3818 77.2151 28.1213" stroke="url(#paint25_linear_415_342)" stroke-width="1.5" stroke-miterlimit="1.5" stroke-linecap="round" stroke-linejoin="round"/>
<path d="M77.2163 28.1217C82.6087 38.0175 77.9792 46.9391 71.5837 52.2176C65.3817 57.336 58.8422 58.7399 57.4588 60.6277" stroke="url(#paint26_linear_415_342)" stroke-width="1.5" stroke-miterlimit="1.5" stroke-linecap="round" stroke-linejoin="round"/>
<path d="M77.2164 28.1217C84.8798 35.6101 83.6715 45.8928 77.8706 52.0361C70.6865 59.6444 60.9168 59.7709 57.4588 60.6277" stroke="url(#paint27_linear_415_342)" stroke-width="1.5" stroke-miterlimit="1.5" stroke-linecap="round" stroke-linejoin="round"/>
<path d="M64.2089 48.8132C59.7876 43.8663 72.3066 23.2903 55.1943 11.8572" stroke="url(#paint28_linear_415_342)" stroke-width="1.5" stroke-miterlimit="1.5" stroke-linecap="round" stroke-linejoin="round"/>
<path d="M57.4344 60.5606C57.0274 52.1953 62.0211 50.8696 67.1695 46.5481C72.2023 42.323 77.0976 35.8177 77.1905 28.131C77.3365 16.0448 66.5754 9.32882 55.1927 11.8578" stroke="url(#paint29_linear_415_342)" stroke-width="1.5" stroke-miterlimit="1.5" stroke-linecap="round" stroke-linejoin="round"/>
<path d="M55.1943 11.8572C66.0047 15.0417 69.0397 24.6238 68.2499 32.8785C67.4836 40.8833 63.8522 46.5001 64.2089 48.8132" stroke="url(#paint30_linear_415_342)" stroke-width="1.5" stroke-miterlimit="1.5" stroke-linecap="round" stroke-linejoin="round"/>
<path d="M55.1943 11.8572C65.9084 11.7335 72.3249 19.8589 72.567 28.3047C72.8669 38.7645 66.0482 45.7622 64.2089 48.8132" stroke="url(#paint31_linear_415_342)" stroke-width="1.5" stroke-miterlimit="1.5" stroke-linecap="round" stroke-linejoin="round"/>
<defs>
<linearGradient id="paint0_linear_415_342" x1="28.5725" y1="19.1063" x2="55.6759" y2="41.0324" gradientUnits="userSpaceOnUse">
<stop stop-color="white" stop-opacity="0.7"/>
<stop offset="0.45458" stop-color="white"/>
<stop offset="1" stop-color="white" stop-opacity="0"/>
</linearGradient>
<linearGradient id="paint1_linear_415_342" x1="28.5389" y1="15.1089" x2="63.8942" y2="48.3429" gradientUnits="userSpaceOnUse">
<stop stop-color="white" stop-opacity="0.7"/>
<stop offset="0.405507" stop-color="white"/>
<stop offset="1" stop-color="white" stop-opacity="0"/>
</linearGradient>
<linearGradient id="paint2_linear_415_342" x1="28.5725" y1="17.5415" x2="57.5688" y2="38.9762" gradientUnits="userSpaceOnUse">
<stop stop-color="white" stop-opacity="0.7"/>
<stop offset="0.45458" stop-color="white"/>
<stop offset="1" stop-color="white" stop-opacity="0"/>
</linearGradient>
<linearGradient id="paint3_linear_415_342" x1="28.5725" y1="15.0762" x2="60.0725" y2="35.5762" gradientUnits="userSpaceOnUse">
<stop stop-color="white" stop-opacity="0.7"/>
<stop offset="0.45458" stop-color="white"/>
<stop offset="1" stop-color="white" stop-opacity="0"/>
</linearGradient>
<linearGradient id="paint4_linear_415_342" x1="14.423" y1="39.8786" x2="49.0922" y2="36.2177" gradientUnits="userSpaceOnUse">
<stop stop-color="white" stop-opacity="0.7"/>
<stop offset="0.45458" stop-color="white"/>
<stop offset="1" stop-color="white" stop-opacity="0"/>
</linearGradient>
<linearGradient id="paint5_linear_415_342" x1="11.5724" y1="37.0761" x2="60.0724" y2="35.5761" gradientUnits="userSpaceOnUse">
<stop stop-color="white" stop-opacity="0.7"/>
<stop offset="0.405507" stop-color="white"/>
<stop offset="1" stop-color="white" stop-opacity="0"/>
</linearGradient>
<linearGradient id="paint6_linear_415_342" x1="13.3166" y1="38.7721" x2="48.9767" y2="33.4252" gradientUnits="userSpaceOnUse">
<stop stop-color="white" stop-opacity="0.7"/>
<stop offset="0.45458" stop-color="white"/>
<stop offset="1" stop-color="white" stop-opacity="0"/>
</linearGradient>
<linearGradient id="paint7_linear_415_342" x1="11.5733" y1="37.0288" x2="48.3429" y2="29.2507" gradientUnits="userSpaceOnUse">
<stop stop-color="white" stop-opacity="0.7"/>
<stop offset="0.45458" stop-color="white"/>
<stop offset="1" stop-color="white" stop-opacity="0"/>
</linearGradient>
<linearGradient id="paint8_linear_415_342" x1="19.1063" y1="64.5724" x2="41.0324" y2="37.469" gradientUnits="userSpaceOnUse">
<stop stop-color="white" stop-opacity="0.7"/>
<stop offset="0.45458" stop-color="white"/>
<stop offset="1" stop-color="white" stop-opacity="0"/>
</linearGradient>
<linearGradient id="paint9_linear_415_342" x1="15.1089" y1="64.6062" x2="48.3429" y2="29.2508" gradientUnits="userSpaceOnUse">
<stop stop-color="white" stop-opacity="0.7"/>
<stop offset="0.405507" stop-color="white"/>
<stop offset="1" stop-color="white" stop-opacity="0"/>
</linearGradient>
<linearGradient id="paint10_linear_415_342" x1="17.5416" y1="64.5724" x2="38.9762" y2="35.5761" gradientUnits="userSpaceOnUse">
<stop stop-color="white" stop-opacity="0.7"/>
<stop offset="0.45458" stop-color="white"/>
<stop offset="1" stop-color="white" stop-opacity="0"/>
</linearGradient>
<linearGradient id="paint11_linear_415_342" x1="15.0762" y1="64.5724" x2="35.5762" y2="33.0724" gradientUnits="userSpaceOnUse">
<stop stop-color="white" stop-opacity="0.7"/>
<stop offset="0.45458" stop-color="white"/>
<stop offset="1" stop-color="white" stop-opacity="0"/>
</linearGradient>
<linearGradient id="paint12_linear_415_342" x1="39.8791" y1="78.7222" x2="36.2182" y2="44.053" gradientUnits="userSpaceOnUse">
<stop stop-color="white" stop-opacity="0.7"/>
<stop offset="0.45458" stop-color="white"/>
<stop offset="1" stop-color="white" stop-opacity="0"/>
</linearGradient>
<linearGradient id="paint13_linear_415_342" x1="37.0761" y1="81.5724" x2="35.5761" y2="33.0724" gradientUnits="userSpaceOnUse">
<stop stop-color="white" stop-opacity="0.7"/>
<stop offset="0.405507" stop-color="white"/>
<stop offset="1" stop-color="white" stop-opacity="0"/>
</linearGradient>
<linearGradient id="paint14_linear_415_342" x1="38.7726" y1="79.8286" x2="33.4257" y2="44.1685" gradientUnits="userSpaceOnUse">
<stop stop-color="white" stop-opacity="0.7"/>
<stop offset="0.45458" stop-color="white"/>
<stop offset="1" stop-color="white" stop-opacity="0"/>
</linearGradient>
<linearGradient id="paint15_linear_415_342" x1="37.0293" y1="81.5718" x2="29.2512" y2="44.8023" gradientUnits="userSpaceOnUse">
<stop stop-color="white" stop-opacity="0.7"/>
<stop offset="0.45458" stop-color="white"/>
<stop offset="1" stop-color="white" stop-opacity="0"/>
</linearGradient>
<linearGradient id="paint16_linear_415_342" x1="64.5723" y1="74.0388" x2="37.4689" y2="52.1126" gradientUnits="userSpaceOnUse">
<stop stop-color="white" stop-opacity="0.7"/>
<stop offset="0.45458" stop-color="white"/>
<stop offset="1" stop-color="white" stop-opacity="0"/>
</linearGradient>
<linearGradient id="paint17_linear_415_342" x1="64.6062" y1="78.0363" x2="29.2508" y2="44.8023" gradientUnits="userSpaceOnUse">
<stop stop-color="white" stop-opacity="0.7"/>
<stop offset="0.405507" stop-color="white"/>
<stop offset="1" stop-color="white" stop-opacity="0"/>
</linearGradient>
<linearGradient id="paint18_linear_415_342" x1="64.5723" y1="75.6035" x2="35.5759" y2="54.1688" gradientUnits="userSpaceOnUse">
<stop stop-color="white" stop-opacity="0.7"/>
<stop offset="0.45458" stop-color="white"/>
<stop offset="1" stop-color="white" stop-opacity="0"/>
</linearGradient>
<linearGradient id="paint19_linear_415_342" x1="64.5723" y1="78.0689" x2="33.0723" y2="57.5689" gradientUnits="userSpaceOnUse">
<stop stop-color="white" stop-opacity="0.7"/>
<stop offset="0.45458" stop-color="white"/>
<stop offset="1" stop-color="white" stop-opacity="0"/>
</linearGradient>
<linearGradient id="paint20_linear_415_342" x1="78.722" y1="53.2662" x2="44.0529" y2="56.927" gradientUnits="userSpaceOnUse">
<stop stop-color="white" stop-opacity="0.7"/>
<stop offset="0.45458" stop-color="white"/>
<stop offset="1" stop-color="white" stop-opacity="0"/>
</linearGradient>
<linearGradient id="paint21_linear_415_342" x1="81.5724" y1="56.0688" x2="33.0724" y2="57.5688" gradientUnits="userSpaceOnUse">
<stop stop-color="white" stop-opacity="0.7"/>
<stop offset="0.405507" stop-color="white"/>
<stop offset="1" stop-color="white" stop-opacity="0"/>
</linearGradient>
<linearGradient id="paint22_linear_415_342" x1="79.8285" y1="54.3726" x2="44.1683" y2="59.7195" gradientUnits="userSpaceOnUse">
<stop stop-color="white" stop-opacity="0.7"/>
<stop offset="0.45458" stop-color="white"/>
<stop offset="1" stop-color="white" stop-opacity="0"/>
</linearGradient>
<linearGradient id="paint23_linear_415_342" x1="81.5717" y1="56.1159" x2="44.8022" y2="63.894" gradientUnits="userSpaceOnUse">
<stop stop-color="white" stop-opacity="0.7"/>
<stop offset="0.45458" stop-color="white"/>
<stop offset="1" stop-color="white" stop-opacity="0"/>
</linearGradient>
<linearGradient id="paint24_linear_415_342" x1="74.0386" y1="28.5725" x2="52.1125" y2="55.6759" gradientUnits="userSpaceOnUse">
<stop stop-color="white" stop-opacity="0.7"/>
<stop offset="0.45458" stop-color="white"/>
<stop offset="1" stop-color="white" stop-opacity="0"/>
</linearGradient>
<linearGradient id="paint25_linear_415_342" x1="78.0362" y1="28.539" x2="44.8022" y2="63.8943" gradientUnits="userSpaceOnUse">
<stop stop-color="white" stop-opacity="0.7"/>
<stop offset="0.405507" stop-color="white"/>
<stop offset="1" stop-color="white" stop-opacity="0"/>
</linearGradient>
<linearGradient id="paint26_linear_415_342" x1="75.6034" y1="28.5725" x2="54.1687" y2="57.5689" gradientUnits="userSpaceOnUse">
<stop stop-color="white" stop-opacity="0.7"/>
<stop offset="0.45458" stop-color="white"/>
<stop offset="1" stop-color="white" stop-opacity="0"/>
</linearGradient>
<linearGradient id="paint27_linear_415_342" x1="78.0687" y1="28.5725" x2="57.5687" y2="60.0725" gradientUnits="userSpaceOnUse">
<stop stop-color="white" stop-opacity="0.7"/>
<stop offset="0.45458" stop-color="white"/>
<stop offset="1" stop-color="white" stop-opacity="0"/>
</linearGradient>
<linearGradient id="paint28_linear_415_342" x1="53.2661" y1="14.423" x2="56.927" y2="49.0922" gradientUnits="userSpaceOnUse">
<stop stop-color="white" stop-opacity="0.7"/>
<stop offset="0.45458" stop-color="white"/>
<stop offset="1" stop-color="white" stop-opacity="0"/>
</linearGradient>
<linearGradient id="paint29_linear_415_342" x1="56.0687" y1="11.5725" x2="57.5687" y2="60.0725" gradientUnits="userSpaceOnUse">
<stop stop-color="white" stop-opacity="0.7"/>
<stop offset="0.405507" stop-color="white"/>
<stop offset="1" stop-color="white" stop-opacity="0"/>
</linearGradient>
<linearGradient id="paint30_linear_415_342" x1="54.3726" y1="13.3166" x2="59.7195" y2="48.9767" gradientUnits="userSpaceOnUse">
<stop stop-color="white" stop-opacity="0.7"/>
<stop offset="0.45458" stop-color="white"/>
<stop offset="1" stop-color="white" stop-opacity="0"/>
</linearGradient>
<linearGradient id="paint31_linear_415_342" x1="56.1159" y1="11.5733" x2="63.894" y2="48.3429" gradientUnits="userSpaceOnUse">
<stop stop-color="white" stop-opacity="0.7"/>
<stop offset="0.45458" stop-color="white"/>
<stop offset="1" stop-color="white" stop-opacity="0"/>
</linearGradient>
</defs>
</svg>
